<?xml version="1.0" encoding="UTF-8"?>
<svg id="_レイヤー_1" data-name="レイヤー 1" xmlns="http://www.w3.org/2000/svg" viewBox="0 0 566.93 566.93">
  <defs>
    <style>
      .cls-1 {
        fill: #231815;
      }

      .cls-2 {
        fill: #e72d28;
      }

      .cls-3 {
        fill: #00a93a;
      }

      .cls-4 {
        fill: #007bb6;
      }
    </style>
  </defs>
  <g>
    <path class="cls-4" d="M119.54,371.31s-24.75-71.49,30.25-101.74c0,0,39.87-22,83.86-1.37,0,0,41.24,16.5,48.12-11,0,0,4.12-23.37-19.25-24.75,0,0-12.37-2.75-20.62,11,0,0-5.5-72.86,72.86-82.49,0,0,70.12-8.25,94.86,54.99,0,0,23.37,65.99-31.62,103.11,0,0-43.99,34.37-131.98,5.5,0,0-111.36-46.74-126.48,46.74Z"/>
    <path class="cls-2" d="M240.84,157.75s4.94,65.86-51.04,82.33c0,0-48.57,12.35-75.74-19.76,0,0-34.58-36.23,9.88-113.62,0,0,54.34-90.56,130.08-67.51,0,0,31.29,11.53,23.05,46.11,0,0-14.82-19.76-47.75,0,0,0-37.87,21.41-34.58,70.8,0,0,0,21.41,21.41,24.7,0,0,18.11,1.65,24.7-23.05Z"/>
    <path class="cls-3" d="M254.96,169.92s-2.6-23.7,33.63-64.86c0,0,11.53-14.82,16.47-9.88l13.17,9.88s6.59,4.94,11.53,0l16.47-13.17s6.59-8.23,14.82,1.65c0,0,36.48,34.47,44.59,88.86,0,0-19.57-45.23-81.48-46.46,0,0-41.89-3.24-69.18,33.99Z"/>
  </g>
  <g>
    <path class="cls-1" d="M146.93,357.85h16.48l9.44,63.07h.24l10.03-63.07h16.49l10.03,63.07h.24l9.44-63.07h16.48l-15.53,85.29h-19.23l-9.56-61.88h-.24l-9.55,61.88h-19.23l-15.53-85.29Z"/>
    <path class="cls-1" d="M243.09,357.85h25.56l12.18,60.2h.24l12.3-60.2h25.45v85.29h-15.77v-68.09h-.24l-15.17,68.09h-13.38l-15.17-68.09h-.24v68.09h-15.77v-85.29Z"/>
    <path class="cls-1" d="M358.36,356.18c25.8,0,29.03,18.4,29.03,44.32s-3.23,44.32-29.03,44.32-29.03-18.4-29.03-44.32,3.23-44.32,29.03-44.32ZM358.36,432.15c10.16,0,11.83-8.72,11.83-31.65s-1.67-31.66-11.83-31.66-11.83,8.84-11.83,31.66,1.67,31.65,11.83,31.65Z"/>
    <path class="cls-1" d="M433.98,386.64c0-12.42-2.51-17.8-10.27-17.8-8.72,0-10.75,8.72-10.75,32.85,0,25.8,3.58,30.46,10.99,30.46,6.21,0,10.75-3.22,10.75-21.62h17.2c0,18.4-4.54,34.28-27.12,34.28-25.8,0-29.03-18.4-29.03-44.32s3.23-44.32,29.03-44.32,26.4,18.04,26.4,30.46h-17.2Z"/>
  </g>
  <g>
    <g>
      <path class="cls-1" d="M193.41,530.09h-43.79c0-12.65,5.12-21.39,15.67-31.13l5.82-5.42c6.33-5.73,7.43-8.94,7.43-16.27,0-5.92-2.51-8.84-7.03-8.84-7.23,0-7.93,6.33-8.03,13.86h-13.86v-2.71c0-13.15,6.93-20.59,22.09-20.59,14.26,0,21.29,7.13,21.29,19.38,0,9.24-2.91,15.27-11.05,22.6l-8.03,7.43c-4.22,3.82-6.63,7.73-7.33,10.45h26.82v11.25Z"/>
      <path class="cls-1" d="M220.12,458.99c17.17,0,22.3,9.34,22.3,34.55,0,19.78-1.11,37.96-22.3,37.96-17.17,0-22.29-9.34-22.29-34.55,0-19.69,1.11-37.96,22.29-37.96ZM212.29,500.06c0,17.88,1.6,21.99,7.83,21.99s7.83-5.62,7.83-23.9v-7.73c0-17.88-1.61-21.99-7.83-21.99s-7.83,5.62-7.83,23.9v7.73Z"/>
      <path class="cls-1" d="M289.82,530.09h-43.79c0-12.65,5.12-21.39,15.67-31.13l5.82-5.42c6.33-5.73,7.43-8.94,7.43-16.27,0-5.92-2.51-8.84-7.03-8.84-7.23,0-7.93,6.33-8.03,13.86h-13.86v-2.71c0-13.15,6.93-20.59,22.09-20.59,14.26,0,21.29,7.13,21.29,19.38,0,9.24-2.91,15.27-11.05,22.6l-8.03,7.43c-4.22,3.82-6.63,7.73-7.33,10.45h26.81v11.25Z"/>
      <path class="cls-1" d="M338.43,460.39v11.05c-11.75,16.57-18.58,38.56-20.89,58.65h-15.16c2.21-17.17,8.24-38.36,22.2-57.24h-29.93v-12.45h43.79Z"/>
    </g>
    <g>
      <path class="cls-1" d="M343.18,461.11h5.98v11.35h6.98v-11.35h5.98v29.67h-5.98v-13.17h-6.98v13.17h-5.98v-29.67Z"/>
      <path class="cls-1" d="M371.07,461.11l3.91,11.47h.08l4.16-11.47h6.48l-7.69,18v11.68h-5.98v-11.68l-7.69-18h6.73Z"/>
      <path class="cls-1" d="M397.38,460.54c8.98,0,10.1,6.4,10.1,15.42s-1.12,15.42-10.1,15.42-10.1-6.4-10.1-15.42,1.12-15.42,10.1-15.42ZM397.38,486.96c3.53,0,4.11-3.03,4.11-11.01s-.58-11.01-4.11-11.01-4.11,3.08-4.11,11.01.58,11.01,4.11,11.01Z"/>
      <path class="cls-1" d="M424.18,469.93c0-2.2-1-4.99-3.41-4.99-2.91,0-4.07,2.99-4.07,10.39s.66,11.63,4.11,11.63c1.41,0,3.7-1.54,3.7-4.74v-3.03h-3.95v-4.41h9.69v16h-4.41v-2.74h-.08c-1.41,2.33-3.45,3.32-6.24,3.32-7.35,0-8.81-5.48-8.81-15.75s2.33-15.08,9.97-15.08c6.57,0,9.23,3.36,9.23,9.39h-5.74Z"/>
      <path class="cls-1" d="M443.59,460.54c8.98,0,10.1,6.4,10.1,15.42s-1.12,15.42-10.1,15.42-10.1-6.4-10.1-15.42,1.12-15.42,10.1-15.42ZM443.59,486.96c3.53,0,4.11-3.03,4.11-11.01s-.58-11.01-4.11-11.01-4.11,3.08-4.11,11.01.58,11.01,4.11,11.01Z"/>
    </g>
    <g>
      <path class="cls-1" d="M348.39,495.9v24.45c0,7.23-3.28,10.18-10.22,10.18s-8.99-4.61-8.99-9.94v-1.48h6.28v1.05c0,3.62.57,5.33,3.04,5.33s3.04-1.71,3.04-5.33v-24.26h6.85Z"/>
      <path class="cls-1" d="M359.48,495.9h8.46l8.99,33.96h-7.14l-1.57-7.18h-9.04l-1.57,7.18h-7.14l8.99-33.96ZM360.38,517.07h6.66l-3.28-15.27h-.1l-3.28,15.27Z"/>
      <path class="cls-1" d="M379.32,495.9h11.98c6.95,0,9.32,5.09,9.32,10.18,0,7.04-4.33,10.22-10.8,10.22h-3.66v13.56h-6.85v-33.96ZM386.17,511.27h3.04c2.71,0,4.57-1.62,4.57-5.09s-1.33-5.23-4.76-5.23h-2.85v10.32Z"/>
      <path class="cls-1" d="M410.61,495.9h8.46l8.99,33.96h-7.14l-1.57-7.18h-9.04l-1.57,7.18h-7.14l8.99-33.96ZM411.52,517.07h6.66l-3.28-15.27h-.1l-3.28,15.27Z"/>
      <path class="cls-1" d="M438.35,495.9l8.28,23.26h.09v-23.26h6.28v33.96h-7.8l-8.37-23.78h-.1v23.78h-6.28v-33.96h7.9Z"/>
    </g>
  </g>
</svg>