<svg viewBox="0 0 200 200" width="100%" height="100%" id="kamiicon" xmlns="http://www.w3.org/2000/svg">
<path fill="#01b2ef" d="M24.142 100.233s32.312-19.374 70.307-7.469l52.7-90.33-123.007 97.799z"/>
<path fill="#3ca733" d="M74.791 53.318l48.883-38.974c-7.561-1.98-15.844-2.574-24.024-2.574-51.435 0-92.78 41.23-92.78 92.665 0 2.767.128 5.505.364 8.21 2.603-12.676 19.775-54.421 67.557-59.327z"/>
<path d="M63.588 95.098c-36.509.961-51.242 18.081-55.313 24.104 3.777-2.601 15.689-8.882 41.541-7.766 32.443 1.401 62.553 39.446 97.799 39.213 21.176-.14 32.033-4.909 37.332-8.695-4.838-.257-30.512-.481-57.295-21.983-15.875-12.746-33.3-25.682-64.064-24.873zm-11.67 59.986c-18.416-20.333-35.496-25.985-42.131-27.489 10.296 40.228 46.775 69.97 90.213 69.97 8.6 0 16.926-1.173 24.832-3.354-16.734-.315-29.699-3.284-40.051-10.084-8.304-5.457-21.93-16.971-32.863-29.043zm3.051-35.414c-28.766-5.467-41.662 1.144-45.983 4.196 6.212 1.041 25.995 5.292 41.532 19.081 7.217 6.405 20.785 19.228 35.42 28.441 24.094 15.168 55.516 25.465 87.418-9.58 1.564-1.997 3.039-4.065 4.439-6.188-4.229 2.03-12.869 4.166-30.412 5.039-38.047 1.895-62.963-35.392-92.414-40.989z" fill="#0078be"/>
<path fill="#3ca733" d="M141.986 21.288l-23.314 39.966s16.107 7.235 20.773 34.778h-36.41s14.342 4.389 38.512 21.007c17.723 12.184 39.674 12.979 48.08 12.779 2.281-8.07 3.504-16.585 3.504-25.384 0-36.328-20.805-67.794-51.145-83.146z"/>
</svg>