<svg viewBox="0 0 230 250" id="kamikawaicon" xmlns="http://www.w3.org/2000/svg" width="230" height="250"><path fill="#00a900" d="M224.8 143.168c0-60.999-49.158-104.828-109.799-104.828S5.201 85.274 5.201 143.168c0 49.76 36.313 91.42 85.016 102.148-17.578-7.271-60.766-30.381-60.766-81.965 0-64.765 55.427-92.479 100.009-75.61 14.656 5.546 26.938 8.586 34.192 22.045 14.909 27.659 7.31 75.856-47.145 80.374v57.818c59.945-.769 108.293-47.394 108.293-104.81z"/><path fill="#0045f9" d="M222.315 4c-35.794 15.622-63.499 36.96-85.1 61.573-35.253 40.169-54.245 87.557-65.593 121.877 0 0 22.387-23.924 51.511-39.311 25.833-13.646 66.139-34.502 81.333-62.129 12.426-22.592 9.513-45.293 11.974-63.484C217.939 11.452 222.315 4 222.315 4z"/></svg>