<svg id="yabuicon" version="1.1" viewBox="0 0 402 371" xmlns="http://www.w3.org/2000/svg">
 <path d="m122.71 149.18c25.313-43.567 51.821-86.483 77.263-129.96 25.426 43.598 52.599 86.234 77.782 129.96-33.54 12.685-62.427 37.667-76.909 69.59-9.9731-17.388-21.692-34.189-38.017-46.688-12.058-9.5799-25.895-16.8-40.119-22.902z" fill="#21907e" stroke="#21907e"/>
 <path d="m110.01 169.93c32.215 9.4712 58.626 34.174 70.523 64.311 12.123 35.323 7.8556 73.208 8.6153 109.74-7.0151-0.0155-13.998 0-20.997 0-0.21013-24.748 0.67889-49.53-0.53341-74.248-2.4731-16.117-6.708-32.542-16.503-46.128-12.462-16.786-30.501-29.75-51.11-35.79 3.2004-6.0243 6.611-11.955 10.005-17.887z" fill="#295da3" stroke="#295da3"/>
 <path d="m213.77 258.56c4.2495-40.773 36.335-76.468 76.665-88.751 3.5237 5.8846 7.0313 11.769 10.424 17.716-32.958 9.7506-61.504 37.186-65.026 71.034-2.7947 28.367-1.0022 56.965-1.4062 85.427-7.0151-0.0155-13.998 0-20.981 0 0.20851-28.474-0.77749-56.964 0.32328-85.425z" fill="#295da3" stroke="#295da3"/>
 <path d="m86.431 208.76c19.671 3.9127 38.519 15.216 47.845 32.668 5.528 8.7414 7.0636 19.113 8.5992 29.05 2.0851 24.439 0.84052 49.003 1.0022 73.487l-137.6-0.13974c26.929-44.903 53.955-89.759 80.157-135.07z" fill="#21907e" stroke="#21907e"/>
 <path d="m259.85 258.09c4.6067-25.712 27.8-44.311 53.42-49.809 15.163 22.436 27.238 46.595 41.963 69.281 13.641 21.24 26.773 45.518 40.562 66.664l-137.09-0.27243c0.50108-28.6-1.6164-57.341 1.1476-85.863z" fill="#21907e" stroke="#21907e"/>
</svg>
